# File created by Blade
# Date/Time:  Tue Sep 30 19:07:05 2014
#---------------------------------------------------------
:version 1.10
:name HOM
:units
  mass 1.0
  length 1.000000
  angle deg
:documentation
     Acclaim Skeleton File
:root
   axis xyz
   order TX TY TZ RX RY RZ
   position 0.000000 0.000000 0.000000
   orientation 0 0 0
:bonedata
   begin
      id 1
      name Spine_dum
      direction 0.000000 1.000000 0.000000
      length 7.508948
      axis 0.0 0.0 0.0 xyz
   end
   begin
      id 2
      name LeftUpLeg_dum
      direction 1.000000 0.000000 0.000000
      length 3.000560
      axis 0.0 0.0 0.0 xyz
   end
   begin
      id 3
      name RightUpLeg_dum
      direction -1.000000 0.000000 0.000000
      length 3.000560
      axis 0.0 0.0 0.0 xyz
   end
   begin
      id 4
      name Spine
      direction 0.000000 1.000000 0.000000
      length 0.000000
      axis 0.0 0.0 0.0 xyz
      dof rx ry rz
   end
   begin
      id 5
      name Spine_dum1
      direction 0.000000 1.000000 0.000000
      length 13.861154
      axis 0.0 0.0 0.0 xyz
   end
   begin
      id 6
      name Spine_dum2
      direction 0.000000 1.000000 0.000000
      length 8.204781
      axis 0.0 0.0 0.0 xyz
   end
   begin
      id 7
      name Spine_dum3
      direction 0.000000 1.000000 0.000000
      length 8.204781
      axis 0.0 0.0 0.0 xyz
   end
   begin
      id 8
      name Head
      direction 0.000000 1.000000 0.000000
      length 4.527550
      axis 0.0 0.0 0.0 xyz
      dof rx ry rz
   end
   begin
      id 9
      name LeftShoulder
      direction 1.000000 0.000000 0.000000
      length 6.635956
      axis 0.0 0.0 -90.0 xyz
      dof rx ry rz
   end
   begin
      id 10
      name LeftArm
      direction 1.000000 0.000000 0.000000
      length 10.274218
      axis 0.0 0.0 -90.0 xyz
      dof rx ry rz
   end
   begin
      id 11
      name LeftForeArm
      direction 1.000000 0.000000 0.000000
      length 8.522147
      axis 0.0 0.0 -90.0 xyz
      dof ry rz rx
   end
   begin
      id 12
      name LeftHand
      direction 0.000000 0.000000 0.000000
      length 0.000000
      axis 0.0 0.0 -90.0 xyz
      dof rx ry rz
   end
   begin
      id 13
      name LeftHand_dum1
      direction 0.000000 0.000000 0.000000
      length 0.000000
      axis 0.0 0.0 -90.0 xyz
   end
   begin
      id 14
      name LeftHand_dum2
      direction 1.000000 0.000000 0.000000
      length 3.937000
      axis 0.0 0.0 -90.0 xyz
   end
   begin
      id 15
      name LeftHandThumb1
      direction 0.000000 0.000000 1.000000
      length 3.937000
      axis 0.0 0.0 -90.0 xyz
      dof rx rz ry
   end
   begin
      id 16
      name RightShoulder
      direction -1.000000 0.000000 0.000000
      length 6.635956
      axis 0.0 0.0 90.0 xyz
      dof rx ry rz
   end
   begin
      id 17
      name RightArm
      direction -1.000000 0.000000 0.000000
      length 10.274218
      axis 0.0 0.0 90.0 xyz
      dof rx ry rz
   end
   begin
      id 18
      name RightForeArm
      direction -1.000000 0.000000 0.000000
      length 8.522147
      axis 0.0 0.0 90.0 xyz
      dof ry rz rx
   end
   begin
      id 19
      name RightHand
      direction 0.000000 0.000000 0.000000
      length 0.000000
      axis 0.0 0.0 90.0 xyz
      dof rx ry rz
   end
   begin
      id 20
      name RightHand_dum1
      direction 0.000000 0.000000 0.000000
      length 0.000000
      axis 0.0 0.0 90.0 xyz
   end
   begin
      id 21
      name RightHand_dum2
      direction -1.000000 0.000000 0.000000
      length 3.937000
      axis 0.0 0.0 90.0 xyz
   end
   begin
      id 22
      name RightHandThumb1
      direction 0.000000 0.000000 1.000000
      length 3.937000
      axis 0.0 0.0 90.0 xyz
      dof rx rz ry
   end
   begin
      id 23
      name LeftUpLeg
      direction 0.000000 -1.000000 0.000000
      length 16.490845
      axis 0.0 0.0 0.0 xyz
      dof rx ry rz
   end
   begin
      id 24
      name LeftLeg
      direction 0.000000 -1.000000 0.000000
      length 14.556576
      axis 0.0 0.0 0.0 xyz
      dof rx ry rz
   end
   begin
      id 25
      name LeftFoot
      direction 0.000000 -0.258819 0.965926
      length 4.831116
      axis 15.0 0.0 0.0 xyz
      dof rx ry rz
   end
   begin
      id 26
      name LeftToeBase
      direction 0.000000 0.000000 1.000000
      length 2.952750
      axis 0.0 0.0 0.0 xyz
      dof rx ry rz
   end
   begin
      id 27
      name RightUpLeg
      direction 0.000000 -1.000000 0.000000
      length 16.490845
      axis 0.0 0.0 0.0 xyz
      dof rx ry rz
   end
   begin
      id 28
      name RightLeg
      direction 0.000000 -1.000000 0.000000
      length 14.556576
      axis 0.0 0.0 0.0 xyz
      dof rx ry rz
   end
   begin
      id 29
      name RightFoot
      direction 0.000000 -0.258819 0.965926
      length 4.831116
      axis 15.0 0.0 0.0 xyz
      dof rx ry rz
   end
   begin
      id 30
      name RightToeBase
      direction 0.000000 0.000000 1.000000
      length 2.952750
      axis 0.0 0.0 0.0 xyz
      dof rx ry rz
   end
:hierarchy
   begin
      root Spine_dum LeftUpLeg_dum RightUpLeg_dum
      Spine_dum Spine
      LeftUpLeg_dum LeftUpLeg
      RightUpLeg_dum RightUpLeg
      Spine Spine_dum1 Spine_dum2 Spine_dum3
      Spine_dum1 Head
      Spine_dum2 LeftShoulder
      Spine_dum3 RightShoulder
      LeftShoulder LeftArm
      LeftArm LeftForeArm
      LeftForeArm LeftHand
      LeftHand LeftHand_dum1 LeftHand_dum2
      LeftHand_dum1 LeftHandThumb1
      RightShoulder RightArm
      RightArm RightForeArm
      RightForeArm RightHand
      RightHand RightHand_dum1 RightHand_dum2
      RightHand_dum1 RightHandThumb1
      LeftUpLeg LeftLeg
      LeftLeg LeftFoot
      LeftFoot LeftToeBase
      RightUpLeg RightLeg
      RightLeg RightFoot
      RightFoot RightToeBase
   end

# File created by Blade
# Date/Time:  Thu Sep 25 19:26:26 2014
# Frame Rate: 120.000 fps
#------------------------------------------------------
:FULLY-SPECIFIED
:DEGREES
91
root 0.349767 31.727971 -6.649398 14.037260 3.597743 5.635296
Spine -14.650693 0.696002 -6.615682
Head -7.725206 -18.100564 16.395916
LeftShoulder -10.738499 19.131583 17.423219
LeftArm 22.517548 -3.104029 -55.861266
LeftForeArm 0.666104 -0.000000 16.729421
LeftHand -26.198349 -0.000000 -4.410529
LeftHandThumb1 -26.253704 0.000000 33.147579
RightShoulder -19.678234 10.349743 -28.182930
RightArm -14.268197 4.793615 55.670429
RightForeArm -22.754576 -0.000000 15.607832
RightHand -9.757847 -0.000000 2.106657
RightHandThumb1 -24.326973 -0.000000 -32.862282
LeftUpLeg -6.414789 10.095379 7.343485
LeftLeg -3.594475 -0.000000 0.000000
LeftFoot -7.034873 2.680796 -31.554462
LeftToeBase 8.006386 -0.000000 -0.000000
RightUpLeg -5.432776 -18.740491 -22.269286
RightLeg -0.927234 -0.000000 0.000000
RightFoot -2.410373 -11.004731 15.897492
RightToeBase 2.186022 -0.000000 -0.000000
92
root 0.323871 31.728104 -6.635169 14.008916 3.389812 5.544494
Spine -14.658754 0.755172 -6.447905
Head -7.700715 -18.102812 16.514383
LeftShoulder -10.684266 19.210620 17.220335
LeftArm 22.186159 -2.188683 -56.949105
LeftForeArm 0.745234 -0.000000 16.816252
LeftHand -26.333825 -0.000000 -4.476845
LeftHandThumb1 -26.253704 0.000000 33.147579
RightShoulder -19.673577 10.384351 -27.998435
RightArm -14.105025 4.433621 56.247358
RightForeArm -22.708257 -0.000000 15.654885
RightHand -9.550607 -0.000000 2.146971
RightHandThumb1 -24.326973 -0.000000 -32.862282
LeftUpLeg -6.360330 10.363560 7.424635
LeftLeg -3.521795 -0.000000 0.000000
LeftFoot -7.061816 2.686229 -31.530217
LeftToeBase 7.997590 -0.000000 -0.000000
RightUpLeg -5.477375 -18.535834 -22.164687
RightLeg -0.955289 -0.000000 0.000000
RightFoot -2.398969 -10.928019 15.803098
RightToeBase 2.078440 -0.000000 -0.000000
93
root 0.298607 31.729853 -6.627967 14.006722 3.187202 5.466085
Spine -14.679213 0.770637 -6.281653
Head -7.660616 -18.066712 16.611083
LeftShoulder -10.698371 19.398920 16.981675
LeftArm 21.986056 -1.255303 -58.011846
LeftForeArm 0.905987 -0.000000 16.869905
LeftHand -26.378503 -0.000000 -4.238028
LeftHandThumb1 -26.253704 0.000000 33.147579
RightShoulder -19.587472 10.468791 -27.837409
RightArm -14.029954 4.217032 56.836121
RightForeArm -22.918305 0.000000 15.707457
RightHand -9.390814 -0.000000 2.104081
RightHandThumb1 -24.326973 -0.000000 -32.862282
LeftUpLeg -6.350931 10.583478 7.499209
LeftLeg -3.425999 -0.000000 0.000000
LeftFoot -7.094560 2.705110 -31.514416
LeftToeBase 8.045390 -0.000000 -0.000000
RightUpLeg -5.569351 -18.501483 -22.041417
RightLeg -0.989659 -0.000000 0.000000
RightFoot -2.343589 -10.778094 15.772075
RightToeBase 1.954061 -0.000000 -0.000000
94
root 0.270280 31.729997 -6.619213 14.002765 3.006973 5.348581
Spine -14.693437 0.804602 -6.056558
Head -7.636296 -18.056587 16.695139
LeftShoulder -10.664772 19.512386 16.760070
LeftArm 21.751349 -0.513411 -59.208155
LeftForeArm 1.424423 -0.000000 16.876144
LeftHand -26.404413 0.000000 -4.096978
LeftHandThumb1 -26.253704 0.000000 33.147579
RightShoulder -19.554531 10.505135 -27.687985
RightArm -13.903497 3.817847 57.453114
RightForeArm -23.015420 0.000000 15.782093
RightHand -9.468351 0.000000 1.987124
RightHandThumb1 -24.326973 -0.000000 -32.862282
LeftUpLeg -6.327513 10.810823 7.623766
LeftLeg -3.361919 -0.000000 0.000000
LeftFoot -7.114436 2.692572 -31.574072
LeftToeBase 7.985711 -0.000000 -0.000000
RightUpLeg -5.641102 -18.433218 -21.879419
RightLeg -1.058376 -0.000000 0.000000
RightFoot -2.340682 -10.703560 15.808391
RightToeBase 2.038778 -0.000000 -0.000000
95
root 0.244507 31.729895 -6.606444 13.973744 2.783149 5.246794
Spine -14.689536 0.835694 -5.848087
Head -7.598728 -18.019354 16.806449
LeftShoulder -10.714544 19.640607 16.526515
LeftArm 21.536805 0.500317 -60.290519
LeftForeArm 1.654457 -0.000000 16.944036
LeftHand -26.463374 -0.000000 -3.913863
LeftHandThumb1 -26.253704 0.000000 33.147579
RightShoulder -19.517890 10.495273 -27.531741
RightArm -13.679048 3.374945 58.123208
RightForeArm -23.071812 0.000000 15.825216
RightHand -9.510148 0.000000 1.805051
RightHandThumb1 -24.326973 -0.000000 -32.862282
LeftUpLeg -6.236619 11.085800 7.723242
LeftLeg -3.348763 -0.000000 0.000000
LeftFoot -7.103671 2.679566 -31.598738
LeftToeBase 7.977047 -0.000000 -0.000000
RightUpLeg -5.693928 -18.250462 -21.758440
RightLeg -1.092363 -0.000000 0.000000
RightFoot -2.308797 -10.610712 15.678553
RightToeBase 1.909091 -0.000000 -0.000000
96
root 0.221429 31.730086 -6.595005 13.990032 2.555374 5.156417
Spine -14.735344 0.919489 -5.651299
Head -7.577904 -18.090635 16.871509
LeftShoulder -10.736685 19.743809 16.301975
LeftArm 21.272440 1.789796 -61.260858
LeftForeArm 1.623412 0.000000 17.144032
LeftHand -26.544039 -0.000000 -3.594542
LeftHandThumb1 -26.253704 0.000000 33.147579
RightShoulder -19.556172 10.459918 -27.405131
RightArm -13.459787 2.924988 58.790362
RightForeArm -23.060374 -0.000000 15.882510
RightHand -9.507607 -0.000000 1.612278
RightHandThumb1 -24.326973 -0.000000 -32.862282
LeftUpLeg -6.204891 11.400860 7.787657
LeftLeg -3.313189 -0.000000 0.000000
LeftFoot -7.127003 2.682198 -31.534827
LeftToeBase 8.057403 -0.000000 -0.000000
RightUpLeg -5.797356 -18.140553 -21.633898
RightLeg -1.137814 -0.000000 0.000000
RightFoot -2.291417 -10.497631 15.648683
RightToeBase 1.928036 -0.000000 -0.000000
97
root 0.198576 31.730618 -6.589631 13.995741 2.313635 5.055176
Spine -14.756119 0.982381 -5.425503
Head -7.513746 -18.123812 16.921194
LeftShoulder -10.741422 19.849476 16.073755
LeftArm 21.017783 2.936750 -62.308639
LeftForeArm 1.686249 -0.000000 17.282169
LeftHand -26.582491 0.000000 -3.703006
LeftHandThumb1 -26.253704 0.000000 33.147579
RightShoulder -19.523899 10.512655 -27.264498
RightArm -13.319859 2.517489 59.428442
RightForeArm -23.027424 -0.000000 15.966677
RightHand -9.632899 -0.000000 1.279199
RightHandThumb1 -24.326973 -0.000000 -32.862282
LeftUpLeg -6.165182 11.666797 7.871838
LeftLeg -3.279348 -0.000000 0.000000
LeftFoot -7.120457 2.671500 -31.661974
LeftToeBase 7.946425 -0.000000 -0.000000
RightUpLeg -5.922907 -18.015641 -21.501830
RightLeg -1.173192 -0.000000 0.000000
RightFoot -2.283372 -10.418936 15.699717
RightToeBase 1.960908 -0.000000 -0.000000
